# xmcd CD Database Entry
#
# Track frame offsets:
# 182
# 27112
# 46295
# 62720
# 84882
# 104920
# 122440
# 144990
# 177632
# 198020
# 215540
# 232912
# 250932
# 266745
# 284520
#
# Disc length: 4085 seconds
#
# Revision: 2
# Processed by: cddbd v1.4PL0 Copyright (c) Steve Scherf et al.
# Submitted via: tcd 2.0b
#
DISCID=d60ff30f
DTITLE=STING - Fields of Gold
DYEAR=1900
DGENRE=
TTITLE0=When We Dance
TTITLE1=If You Love Somebody Set Them Free
TTITLE2=Fields of Gold
TTITLE3=All This Time
TTITLE4=Englishman in New York
TTITLE5=Mad About You
TTITLE6=It's Probably Me
TTITLE7=They Dance Alone ( CUECA SOLO)
TTITLE8=If I Ever Lose My Faith inYou
TTITLE9=Fragile
TTITLE10=We'll be Together
TTITLE11=Moon over Bourbon Street
TTITLE12=Love is The Seventh Wave
TTITLE13=Russians
TTITLE14=Why Should I Cry For You
EXTD=
EXTT0=
EXTT1=
EXTT2=
EXTT3=
EXTT4=
EXTT5=
EXTT6=
EXTT7=
EXTT8=
EXTT9=
EXTT10=
EXTT11=
EXTT12=
EXTT13=
EXTT14=
PLAYORDER=
